<svg xmlns="http://www.w3.org/2000/svg" viewBox="0 0 1075.04 476.74"><g id="Layer_2" data-name="Layer 2"><g id="Layer_1-2" data-name="Layer 1"><path d="M206.81,98.8A47.08,47.08,0,0,0,212.57,85a117.12,117.12,0,0,0,3-16.81,148.88,148.88,0,0,0,.92-15.2,74.09,74.09,0,0,0-1.15-12.9A41.85,41.85,0,0,0,211,27.64q-7.38-15.21-21.65-21.42A75.26,75.26,0,0,0,158.91,0Q129,0,100.64,15.93a212.54,212.54,0,0,0-50.89,40A210.94,210.94,0,0,0,13.59,107.6Q0,135.29,0,159.31q0,20.33,10.13,34.41A97.69,97.69,0,0,0,35.47,218a212,212,0,0,0,32.47,17.78q17.28,7.62,31.55,14.55,6.92,3.69,15,8.08a100.93,100.93,0,0,1,15,9.92A53.25,53.25,0,0,1,141,281a28.94,28.94,0,0,1,4.6,15.93q0,14.32-11.05,26.79a118.71,118.71,0,0,1-26.26,21.93,145.27,145.27,0,0,1-31.32,14.77q-16.12,5.32-26.25,5.32a28.6,28.6,0,0,1-8.06-1.15,26.9,26.9,0,0,0-7.6-1.16,14.67,14.67,0,0,0-7.83,2.26A8.21,8.21,0,0,0,23,372q-.47,4.51,3.68,7.45A31.23,31.23,0,0,0,36.85,384a83,83,0,0,0,12.2,2.26c4.15.44,7.45.67,9.91.67q18.42,0,38.92-8.29a158.87,158.87,0,0,0,37.31-21.18,130.11,130.11,0,0,0,27.87-28.79q11-15.9,11.05-31.09,0-19.35-10.82-32.71a102.53,102.53,0,0,0-27.41-23.26,318.58,318.58,0,0,0-35.47-18.19Q81.52,215.11,65,206.12T37.54,185.86a38.12,38.12,0,0,1-10.83-27.41q0-23,13.36-47.67A201,201,0,0,1,73.24,65.87,189.38,189.38,0,0,1,116.07,32.7q23-12.89,41.92-12.89,15.66,0,25.56,7.56t9.91,25.88a95.56,95.56,0,0,1-2.08,20.16q-2.07,9.61-5.29,19.7-2.31,6.4,2.07,8.93a17.76,17.76,0,0,0,9,2.52Q203.13,104.56,206.81,98.8Z"/><path d="M435.27,160.76a8.85,8.85,0,0,0-2.08-5.76,10.48,10.48,0,0,0-5.06-3.45,17.08,17.08,0,0,0-6.22-.69,12.39,12.39,0,0,0-5.53,1.61,102.89,102.89,0,0,0-18.19,16.58q-9.45,10.6-18.89,22.57t-18.42,24.19q-9,12.19-16.81,21.87,1.38-4.59,3.45-11.74A142.69,142.69,0,0,0,351,211a135.71,135.71,0,0,0,1.85-15,34.27,34.27,0,0,0-.92-11.75,9.63,9.63,0,0,0-4.38-5.3,10,10,0,0,0-6.22-1.15,8.54,8.54,0,0,0-5.3,2.77,6.33,6.33,0,0,0-1.44,2.81l-1.32.64a145.67,145.67,0,0,1-16.58,6.68,186.86,186.86,0,0,1-19.8,5.53,92,92,0,0,1-20,2.3q-7.85,0-8.75-4.3a55.9,55.9,0,0,1-1.15-9.29,18.61,18.61,0,0,0-3-9.28q-2.76-4.31-13.82-4.3a37.08,37.08,0,0,0-21.18,6.9,80.45,80.45,0,0,0-18.2,17.28,103.15,103.15,0,0,0-13.12,21.88,69.22,69.22,0,0,0-6,21.18q-.93,12.45,6.44,19.12t18.89,6.68a26.37,26.37,0,0,0,15.66-5.3A63.05,63.05,0,0,0,246,246a91.57,91.57,0,0,0,10.13-16.58,126.21,126.21,0,0,0,6.45-16.12,40.62,40.62,0,0,0,15.2,2.76,75.48,75.48,0,0,0,21.65-3.3,143.46,143.46,0,0,0,20.5-7.81c5.37-2.56,10.22-5.16,14.6-7.79a50.78,50.78,0,0,1-1.25,8.08q-2.07,8.53-5.3,17.73c-1.22,3.39-2.46,6.68-3.68,9.91s-2.3,6.52-3.22,9.9q-.93,5.07-2.31,10.82c-.92,3.85,0,7,2.76,9.45q4.15,4.14,9,3.68a24.1,24.1,0,0,0,9.67-3.22,41.31,41.31,0,0,0,8.75-6.68l6.68-6.68a240.92,240.92,0,0,0,17-21q7.83-10.82,15.43-21t15.43-19.57a139.15,139.15,0,0,1,17-17.27q3.68-1.38,9-3.69T435.27,160.76Zm-187.47,32a47.4,47.4,0,0,1-2.53,10.83,106.54,106.54,0,0,1-4.61,11.28q-2.53,5.31-3.45,7.6c-.92,1.84-2.07,4.23-3.46,7.14a58.24,58.24,0,0,1-4.6,8.06,33.43,33.43,0,0,1-5.76,6.45,10.46,10.46,0,0,1-6.91,2.77c-2.46,0-3.84-1.62-4.15-4.84a33.09,33.09,0,0,1,1.62-12,105.39,105.39,0,0,1,6-15.43,123,123,0,0,1,8.3-15,49,49,0,0,1,9-10.59q4.6-3.92,8.29-2.53Q248.26,187.94,247.8,192.77Z"/><path d="M804.67,146.94a18,18,0,0,0,6.91,2.77q5.05.47,9.44-5.07t11.74-18.88a18.51,18.51,0,0,0,2.31-10.6q-.47-5.52-9.67-5.53-7.38,0-12,7.83-2.31,4.16-3.46,6.68t-2.07,4.61q-.93,2.07-2.07,4.83t-3,7.37C801.6,143.42,802.21,145.41,804.67,146.94Z"/><path d="M782.56,256.57q5.06-15.21,10.59-35.7A345.54,345.54,0,0,1,806.51,181q2.29-6,.92-9.9t-4.38-5.07a9.21,9.21,0,0,0-6.9.46q-3.93,1.62-6.68,6.68a209,209,0,0,0-15,33.16c-.64,1.83-1.31,3.75-2,5.65a103.43,103.43,0,0,1-7.92,8.4,132.41,132.41,0,0,1-17.51,14.05,117.34,117.34,0,0,1-22.8,12,70.43,70.43,0,0,1-26.48,5.07q-8.29,0-12.67-3.68a17.37,17.37,0,0,1-5.76-8.52,27.81,27.81,0,0,1-.92-10.14,58.55,58.55,0,0,1,1.38-9q8.74,3.23,16.35.23a32.12,32.12,0,0,0,13.13-9.67,52.3,52.3,0,0,0,8.76-15.43,48.19,48.19,0,0,0,3.22-16.58,22.48,22.48,0,0,0-3.68-13.13q-3.69-5.29-12-5.3a22.7,22.7,0,0,0-11,2.76,46.41,46.41,0,0,0-9.68,7.14,59.25,59.25,0,0,0-8.06,9.45q-3.45,5.07-6.22,9.67a103.51,103.51,0,0,0-9.9,21.19c-.26.75-.43,1.51-.66,2.26-20.76,9.18-78.58,59.93-65.42-3.6.33-8,5.28-16.51,8-24.46,3.15-9.36-6.07-18.22-15.35-14.87-14.6,5.28-28.11,18.88-23-17.36,1.71-13.29-9.05-19.34-15.21-10.16a16.58,16.58,0,0,0-2.52,8c-2,26.57-9.52,62.39-34.32,83.49l-.91.64a117.92,117.92,0,0,1-22.8,12A70.44,70.44,0,0,1,462,251.5c-5.52,0-9.75-1.22-12.66-3.68a17.3,17.3,0,0,1-5.76-8.52,27.81,27.81,0,0,1-.92-10.14,57.35,57.35,0,0,1,1.38-9q8.75,3.23,16.35.23a32.12,32.12,0,0,0,13.13-9.67,52.5,52.5,0,0,0,8.75-15.43,48,48,0,0,0,3.23-16.58,22.49,22.49,0,0,0-3.69-13.13q-3.69-5.29-12-5.3a22.71,22.71,0,0,0-11.06,2.76,46.62,46.62,0,0,0-9.67,7.14,58.74,58.74,0,0,0-8.06,9.45q-3.47,5.07-6.22,9.67a103,103,0,0,0-9.9,21.19,63,63,0,0,0-3.46,23q.45,13.82,7.37,21.42a36.66,36.66,0,0,0,17.05,10.59,56.79,56.79,0,0,0,21.87,1.84,90.33,90.33,0,0,0,18.33-3.68,86.38,86.38,0,0,0,48.17-29.27,57.34,57.34,0,0,0,9.12-12.64,138.47,138.47,0,0,0,14.11-31.64c6.6,3.64,16.22,3.24,23.82,1.91-33.48,72.31,37.84,79.24,76,38.82,0,.88,0,1.77,0,2.65q.47,13.82,7.38,21.42a36.58,36.58,0,0,0,17,10.59,56.86,56.86,0,0,0,21.88,1.84,89.74,89.74,0,0,0,21.88-4.83,141.53,141.53,0,0,0,32.7-17.74q2-1.44,3.85-2.92c-.22.6-.42,1.17-.63,1.77a68.63,68.63,0,0,0-1.84,6.91,10.23,10.23,0,0,0,.46,6.91,8.38,8.38,0,0,0,4.6,5.07,17.38,17.38,0,0,0,6.92,1.38,13.77,13.77,0,0,0,6.9-1.84A8.49,8.49,0,0,0,782.56,256.57ZM685.6,205a18.57,18.57,0,0,1,.69-2.76,20.13,20.13,0,0,1,.92-2.31c.93-1.84,2.15-4.06,3.69-6.68a67.12,67.12,0,0,1,4.61-6.9,30.14,30.14,0,0,1,4.83-5.07q2.53-2.07,4.84-1.61c2.14.62,3,2.23,2.53,4.83a20.2,20.2,0,0,1-3.91,8.29,64,64,0,0,1-7.61,8.53,25.31,25.31,0,0,1-8.05,5.52c-1.23.62-2,.69-2.31.23A2.83,2.83,0,0,1,685.6,205Zm-235.83,0a17.41,17.41,0,0,1,.69-2.76,17,17,0,0,1,.92-2.31c.92-1.84,2.14-4.06,3.68-6.68a68.79,68.79,0,0,1,4.61-6.9,30.18,30.18,0,0,1,4.84-5.07q2.52-2.07,4.83-1.61,3.23.93,2.54,4.83a20.2,20.2,0,0,1-3.91,8.29,64.75,64.75,0,0,1-7.61,8.53,25.22,25.22,0,0,1-8.06,5.52c-1.23.62-2,.69-2.3.23A2.83,2.83,0,0,1,449.77,205Z"/><path d="M935,153.36a13.88,13.88,0,0,0-7.37-2.3,11.83,11.83,0,0,0-10.13,5.07,25.43,25.43,0,0,0-7.14-10.91A17.17,17.17,0,0,0,898.63,141q-12,0-24.64,10.64A144,144,0,0,0,850.5,177a162.19,162.19,0,0,0-17.74,30.52q-6.9,15.72-6.91,25.89,0,14.81,7.14,19.66A27.61,27.61,0,0,0,848.88,258q18.89,0,31.32-11.74a184.28,184.28,0,0,0,23-26.49l-14.74,52a90.3,90.3,0,0,0-47.91,18.42,152.56,152.56,0,0,0-35.92,38.93,184.48,184.48,0,0,0-22.34,48.82q-7.61,26-7.14,47.9t9.9,36.39q9.45,14.5,28.33,14.51,12.89,0,24.18-10.36t21-27.18a255.47,255.47,0,0,0,17.5-37.78q7.83-21,14.28-41.91t11.52-40.08q5.05-19.12,8.75-31.55a49.6,49.6,0,0,0,6.21.69q3.91.23,6.68.23a13.06,13.06,0,0,0,8.3-2.54q3.21-2.53,2.3-7.14a5.68,5.68,0,0,0-2.77-4.15A18.25,18.25,0,0,0,926,272.9a40.54,40.54,0,0,0-6.45-.92c-2.3-.16-4.38-.23-6.22-.23q5.53-20.73,11.29-44.91t12.66-57.36c.31-1.53.61-3.06.93-4.6a24,24,0,0,0,.45-4.61A7.62,7.62,0,0,0,935,153.36Zm-59,162.4q-4.6,16.8-10.59,35.47t-12.9,37.53q-6.92,18.89-13.82,34.09t-13.82,24.64q-6.9,9.43-12.43,9.45-9.68,0-14-11.75t-3.23-29.48a181.29,181.29,0,0,1,7.37-38.92A168.19,168.19,0,0,1,820.1,337a131.81,131.81,0,0,1,27.17-32.25,68.92,68.92,0,0,1,36.16-16.35Q880.67,298.94,876.06,315.76ZM900.47,190a138.25,138.25,0,0,1-12.67,23.39,101.5,101.5,0,0,1-16.35,19.22q-8.75,7.89-15.66,7.88-7.83,0-8.75-6.26t2.77-15.51a124.74,124.74,0,0,1,10.36-19.92,216.58,216.58,0,0,1,14.05-19.91A161.41,161.41,0,0,1,888,163.33q6.44-6.26,9.67-6.25a3.92,3.92,0,0,1,3.22,2.08,21.53,21.53,0,0,1,2.31,4.63q.91,2.55,1.61,4.41c.46,1.23.69,1.69.69,1.39Q905.54,177.91,900.47,190Z"/><path d="M1059.84,232.62a43.45,43.45,0,0,1-1.61-14.05,106.09,106.09,0,0,0-.69-15.66,40.36,40.36,0,0,0-4.15-13.82q-3.23-6.22-11.51-9a28.77,28.77,0,0,0-17.27-.23,58.82,58.82,0,0,0-16.59,8.06,107.79,107.79,0,0,0-15.2,12.66L979.7,213.73q6.9-16.11,7.37-22.34t-1.85-9.9q-3.69-4.61-10.13-4.15t-8.75,5.53Q965,186.1,961,196.46t-7.6,21.65q-3.69,11.29-6.44,20.73c-1.85,6.29-2.77,10.06-2.77,11.28q.91,5.07,6.22,7.14a16.15,16.15,0,0,0,10.36.69q6.45-1.38,15.66-11t19.35-20.73q10.13-11.05,19.81-19.81t16.58-8.75c1.84,0,3.06,1.61,3.68,4.84s1.15,7.14,1.62,11.74.92,9.6,1.38,15a117.6,117.6,0,0,0,2.07,14.51q1.83,8.29,7.14,12a17.69,17.69,0,0,0,11.05,3.45,15.63,15.63,0,0,0,10.37-4.6q4.59-4.38,5.52-12.21Q1063.07,243.67,1059.84,232.62Z"/><path d="M546.71,146.83v.37a.7.7,0,0,1,.12-.37Z"/><path d="M272,322.16a1.65,1.65,0,0,1,1.59-1.59h5.54a1.59,1.59,0,0,1,1.59,1.59v23.42h30.72V322.16a1.59,1.59,0,0,1,1.59-1.59h5.54a1.66,1.66,0,0,1,1.59,1.59v55.55a1.66,1.66,0,0,1-1.59,1.6h-5.54a1.59,1.59,0,0,1-1.59-1.6V353.46H280.76v24.25a1.6,1.6,0,0,1-1.59,1.6h-5.54a1.65,1.65,0,0,1-1.59-1.6Z"/><path d="M375.73,319.73A30.21,30.21,0,1,1,345.61,350,30.16,30.16,0,0,1,375.73,319.73Zm0,52A21.82,21.82,0,1,0,354,350,21.82,21.82,0,0,0,375.73,371.76Z"/><path d="M431.35,322.16a1.59,1.59,0,0,1,1.59-1.59h22.83a18.11,18.11,0,0,1,18.29,18c0,7.72-5.12,14.1-12.42,17l11.49,21.32a1.58,1.58,0,0,1-1.42,2.43h-6.55a1.54,1.54,0,0,1-1.34-.76l-11.16-22.23H440v21.39a1.66,1.66,0,0,1-1.6,1.6h-5.45a1.6,1.6,0,0,1-1.59-1.6Zm23.74,26.94a10.43,10.43,0,0,0,10.24-10.41,10.28,10.28,0,0,0-10.24-10H440.16V349.1Z"/><path d="M500.56,322.16a1.66,1.66,0,0,1,1.6-1.59h5.53a1.66,1.66,0,0,1,1.6,1.59v55.55a1.66,1.66,0,0,1-1.6,1.6h-5.53a1.66,1.66,0,0,1-1.6-1.6Z"/><path d="M533.11,376.2,560.8,329v-.33H537.14a1.66,1.66,0,0,1-1.6-1.6v-4.87a1.66,1.66,0,0,1,1.6-1.59h34.48a1.66,1.66,0,0,1,1.6,1.59v1.1l-27.78,48v.09H570a1.59,1.59,0,0,1,1.59,1.59v4.78a1.6,1.6,0,0,1-1.59,1.6H534.7a1.65,1.65,0,0,1-1.59-1.6Z"/><path d="M622.55,319.73A30.21,30.21,0,1,1,592.42,350,30.15,30.15,0,0,1,622.55,319.73Zm0,52A21.82,21.82,0,1,0,600.81,350,21.81,21.81,0,0,0,622.55,371.76Z"/><path d="M678.16,321.24a1.58,1.58,0,0,1,1.6-1.51h2.09l36.42,42.12h.08V322.16a1.6,1.6,0,0,1,1.6-1.59h5.37a1.65,1.65,0,0,1,1.59,1.59v56.48a1.57,1.57,0,0,1-1.59,1.51h-2.18l-36.42-43.3h-.09v40.86a1.6,1.6,0,0,1-1.59,1.6h-5.28a1.66,1.66,0,0,1-1.6-1.6Z"/></g></g></svg>